<?xml version="1.0" standalone="no"?>
<!DOCTYPE svg PUBLIC "-//W3C//DTD SVG 20010904//EN"
 "http://www.w3.org/TR/2001/REC-SVG-20010904/DTD/svg10.dtd">
<svg version="1.0" xmlns="http://www.w3.org/2000/svg"
 width="512.000000pt" height="512.000000pt" viewBox="0 0 512.000000 512.000000"
 preserveAspectRatio="xMidYMid meet">

<g transform="translate(0.000000,512.000000) scale(0.100000,-0.100000)"
fill="#000000" stroke="none">
<path d="M200 5111 c-71 -22 -137 -77 -173 -145 l-22 -41 0 -2365 0 -2365 22
-40 c25 -47 84 -105 133 -131 34 -18 113 -19 2400 -19 l2365 0 41 22 c50 27
99 76 127 128 l22 40 0 2365 0 2365 -22 40 c-28 52 -77 101 -127 128 l-41 22
-2350 2 c-1292 1 -2361 -2 -2375 -6z m3450 -805 l0 -344 -257 -5 c-283 -5
-326 -12 -401 -67 -54 -39 -90 -111 -102 -203 -5 -39 -10 -183 -10 -319 l0
-248 370 0 370 0 0 -370 0 -370 -367 -2 -368 -3 -3 -953 -2 -952 -380 0 -380
0 -2 952 -3 953 -322 3 -323 2 0 370 0 370 325 0 325 0 0 344 c0 264 4 364 15
432 64 367 286 620 627 714 123 34 178 38 541 39 l347 1 0 -344z"/>
</g>
</svg>
