<?xml version="1.0" standalone="no"?>
<!DOCTYPE svg PUBLIC "-//W3C//DTD SVG 20010904//EN"
 "http://www.w3.org/TR/2001/REC-SVG-20010904/DTD/svg10.dtd">
<svg version="1.0" xmlns="http://www.w3.org/2000/svg"
 width="512.000000pt" height="512.000000pt" viewBox="0 0 512.000000 512.000000"
 preserveAspectRatio="xMidYMid meet">

<g transform="translate(0.000000,512.000000) scale(0.100000,-0.100000)"
fill="#000000" stroke="none">
<path d="M200 5111 c-71 -22 -137 -77 -173 -145 l-22 -41 0 -2365 0 -2365 22
-40 c25 -47 84 -105 133 -131 34 -18 113 -19 2400 -19 l2365 0 41 22 c50 27
99 76 127 128 l22 40 0 2365 0 2365 -22 40 c-28 52 -77 101 -127 128 l-41 22
-2350 2 c-1292 1 -2361 -2 -2375 -6z m3378 -851 c138 -33 259 -96 379 -198
l53 -44 47 11 c112 27 246 76 359 132 67 32 127 59 133 59 21 0 11 -42 -29
-127 -49 -104 -122 -205 -201 -277 l-60 -54 67 14 c93 20 167 42 252 75 124
49 130 38 40 -83 -67 -91 -246 -274 -319 -326 l-46 -33 -6 -187 c-19 -630
-266 -1211 -707 -1666 -416 -429 -937 -666 -1575 -717 -495 -40 -1065 99
-1473 358 -82 52 -69 59 104 54 371 -9 699 81 999 273 l80 51 -65 13 c-303 61
-531 233 -655 494 -36 75 -49 133 -30 133 6 -1 49 -5 97 -9 48 -5 114 -5 145
-1 l58 8 -38 13 c-123 43 -295 166 -378 271 -93 116 -157 254 -183 392 -18 92
-21 187 -7 195 5 3 42 -9 82 -28 69 -32 185 -66 222 -66 10 0 -2 17 -34 47
-115 108 -211 275 -249 436 -30 126 -29 291 4 418 22 90 87 239 104 239 4 0
60 -56 125 -125 426 -451 936 -701 1567 -770 l55 -6 -3 143 c-5 173 15 272 82
412 127 268 373 449 671 496 84 13 235 4 333 -20z"/>
</g>
</svg>
