<?xml version="1.0" standalone="no"?>
<!DOCTYPE svg PUBLIC "-//W3C//DTD SVG 20010904//EN"
 "http://www.w3.org/TR/2001/REC-SVG-20010904/DTD/svg10.dtd">
<svg version="1.0" xmlns="http://www.w3.org/2000/svg"
 width="512.000000pt" height="512.000000pt" viewBox="0 0 512.000000 512.000000"
 preserveAspectRatio="xMidYMid meet">

<g transform="translate(0.000000,512.000000) scale(0.100000,-0.100000)"
fill="#000000" stroke="none">
<path d="M200 5111 c-71 -22 -137 -77 -173 -145 l-22 -41 0 -2365 0 -2365 22
-40 c25 -47 84 -105 133 -131 34 -18 113 -19 2400 -19 l2365 0 41 22 c50 27
99 76 127 128 l22 40 0 2365 0 2365 -22 40 c-28 52 -77 101 -127 128 l-41 22
-2350 2 c-1292 1 -2361 -2 -2375 -6z m1455 -861 c43 -160 82 -287 85 -283 4 5
33 109 65 233 32 124 64 251 73 283 l14 57 115 0 c104 0 114 -2 109 -17 -3
-10 -64 -211 -136 -448 l-130 -430 0 -307 0 -308 -115 0 -115 0 0 314 0 315
-29 113 c-25 95 -152 481 -230 702 -12 33 -21 61 -21 63 0 1 53 3 118 3 l119
0 78 -290z m896 -111 c60 -26 120 -90 145 -155 17 -45 19 -79 19 -399 0 -347
0 -351 -24 -402 -26 -59 -93 -126 -149 -151 -24 -10 -66 -16 -117 -16 -95 0
-152 21 -210 79 -83 84 -99 176 -93 553 5 299 13 339 75 412 47 54 82 77 144
95 66 18 144 12 210 -16z m549 -452 c0 -347 3 -466 12 -475 31 -31 111 3 147
62 20 32 21 47 21 455 l0 421 100 0 100 0 0 -560 0 -560 -100 0 -100 0 0 55
c0 30 -3 55 -6 55 -4 0 -26 -18 -49 -39 -64 -59 -120 -85 -185 -85 -68 0 -102
20 -127 77 -16 38 -18 85 -21 550 l-3 507 105 0 106 0 0 -463z m180 -787 c328
-14 558 -36 624 -61 140 -52 234 -164 270 -320 42 -182 50 -300 51 -759 0
-461 -6 -567 -45 -757 -24 -113 -56 -180 -123 -250 -101 -107 -174 -126 -607
-155 -268 -18 -1512 -18 -1780 0 -331 23 -425 36 -497 73 -79 40 -155 119
-193 201 -67 143 -95 466 -87 988 9 585 46 760 183 890 63 59 139 97 221 110
85 13 322 31 522 40 270 11 1187 11 1461 0z"/>
<path d="M2377 3969 c-42 -25 -47 -62 -47 -379 0 -319 5 -356 48 -379 29 -16
74 -14 99 4 37 26 43 76 43 383 0 311 -5 348 -48 371 -26 14 -71 14 -95 0z"/>
<path d="M1140 2445 l0 -105 120 0 120 0 0 -645 0 -645 110 0 110 0 0 645 0
645 120 0 120 0 0 105 0 105 -350 0 -350 0 0 -105z"/>
<path d="M2630 1800 l0 -751 98 3 97 3 3 51 3 50 41 -39 c125 -119 275 -97
325 47 16 46 18 93 18 446 0 292 -3 406 -13 437 -15 49 -53 98 -93 118 -65 34
-170 7 -241 -63 l-38 -36 0 242 0 242 -100 0 -100 0 0 -750z m339 190 c42 -22
46 -59 46 -385 0 -331 -1 -339 -51 -371 -21 -14 -31 -15 -63 -6 -74 23 -72 8
-69 392 l3 343 35 18 c38 21 72 24 99 9z"/>
<path d="M3577 2166 c-101 -38 -165 -110 -186 -213 -9 -41 -12 -152 -9 -373 3
-306 4 -316 27 -367 32 -71 104 -137 172 -157 155 -46 301 10 366 141 22 47
28 74 31 150 l4 93 -106 0 -106 0 0 -72 c0 -84 -14 -117 -54 -137 -40 -19 -85
-4 -113 38 -21 31 -23 45 -23 167 l0 134 200 0 200 0 0 153 c0 224 -19 305
-91 376 -53 53 -105 74 -194 78 -52 2 -93 -2 -118 -11z m156 -186 c33 -26 47
-75 47 -167 l0 -73 -100 0 -100 0 0 86 c0 95 16 144 53 162 35 17 72 14 100
-8z"/>
<path d="M1872 1663 c3 -451 5 -512 20 -545 47 -104 183 -103 301 3 l56 50 3
-58 3 -58 98 -3 97 -3 0 561 0 560 -100 0 -100 0 0 -427 0 -426 -24 -32 c-14
-18 -41 -40 -62 -50 -47 -22 -79 -10 -88 35 -3 18 -6 228 -6 466 l0 434 -101
0 -100 0 3 -507z"/>
</g>
</svg>
